PathFileType	4	(X/Y/Z)	_05Apr_ss_11ms_01.trc
DataRate	CameraRate	NumFrames	NumMarkers	Units	OrigDataRate	OrigDataStartFrame	OrigNumFrames
200.000000	200.000000	4	42	mm	200.000000	5341	6114
Frame#	Time	LASI			RASI			LPSI			RPSI			LTH1			LTH2			LTH3			LTH4			LMFC			LLFC			LTB1			LTB2			LTB3			LTB4			LMMAL			LLMAL			LCAL			LToe			LMT1			LMT5			RTH1			RTH2			RTH3			RTH4			RMFC			RLFC			RTB1			RTB2			RTB3			RTB4			RMMAL			RLMAL			RCAL			RToe			RMT1			RMT5			C7			T10			LACR1			RACR1			CLAV			RBack			
		X1	Y1	Z1	X2	Y2	Z2	X3	Y3	Z3	X4	Y4	Z4	X5	Y5	Z5	X6	Y6	Z6	X7	Y7	Z7	X8	Y8	Z8	X9	Y9	Z9	X10	Y10	Z10	X11	Y11	Z11	X12	Y12	Z12	X13	Y13	Z13	X14	Y14	Z14	X15	Y15	Z15	X16	Y16	Z16	X17	Y17	Z17	X18	Y18	Z18	X19	Y19	Z19	X20	Y20	Z20	X21	Y21	Z21	X22	Y22	Z22	X23	Y23	Z23	X24	Y24	Z24	X25	Y25	Z25	X26	Y26	Z26	X27	Y27	Z27	X28	Y28	Z28	X29	Y29	Z29	X30	Y30	Z30	X31	Y31	Z31	X32	Y32	Z32	X33	Y33	Z33	X34	Y34	Z34	X35	Y35	Z35	X36	Y36	Z36	X37	Y37	Z37	X38	Y38	Z38	X39	Y39	Z39	X40	Y40	Z40	X41	Y41	Z41	X42	Y42	Z42	

5341	26.695	327.31543	968.80493	-813.46558	575.00018	980.67072	-812.31213	412.38062	1000.87980	-636.84943	503.81314	995.23834	-634.36658	282.58545	774.14130	-765.78052	326.58701	770.65094	-812.07324	306.75787	730.84937	-786.80084	300.56543	684.08722	-760.03833	429.11975	495.98526	-636.01996	311.48392	511.59473	-636.50677	294.01215	394.64841	-552.58820	303.50705	349.18115	-568.59222	320.71677	297.72122	-571.33960	307.40207	379.64761	-610.98285	439.50412	119.55626	-504.85306	353.12845	102.78336	-474.41217	406.47040	67.54595	-399.50650	407.52588	44.69917	-675.80463	437.28381	35.05703	-609.24780	324.88284	38.86797	-583.87756	643.70453	827.91418	-823.59729	656.60669	776.11469	-810.08148	651.51678	732.66150	-787.66791	654.74670	741.96814	-849.31311	494.87912	511.70917	-916.77814	621.20331	512.27441	-910.31097	601.56506	281.90182	-1025.19780	615.51373	257.11584	-965.21631	611.05267	233.16527	-1008.32520	597.10321	194.12619	-1045.39180	514.65424	139.29008	-1066.56150	598.14862	110.08939	-1043.90220	530.19141	45.38014	-1004.49080	569.87756	157.70036	-1247.99230	529.68683	117.69631	-1204.79240	634.26642	97.31251	-1170.09140	447.92651	1476.00720	-710.17786	448.09369	1218.66750	-603.90930	276.69000	1440.15700	-771.36200	626.98840	1409.72160	-765.28217	453.67917	1373.63550	-832.71503	567.85962	1353.99120	-629.61639
5342	26.7	327.77017	967.86530	-813.55133	575.67572	979.58258	-812.66394	413.23166	999.98077	-637.11676	504.62085	994.31909	-634.52753	283.05350	773.46405	-765.48163	326.81967	769.67480	-811.83124	306.93881	730.05804	-786.32098	300.80685	683.28687	-759.45972	429.48035	495.33344	-635.04230	312.21219	511.00790	-635.67932	293.82541	394.68820	-550.34167	303.68362	349.20929	-566.31049	320.79028	297.59384	-568.45874	307.71448	379.27658	-609.07349	439.33914	120.20309	-499.92917	352.80835	103.67726	-469.39731	406.05594	68.93672	-394.18845	407.48395	44.58844	-670.19257	437.23154	35.13860	-603.74707	324.84515	38.83403	-578.41321	644.24933	827.71155	-824.01154	657.73065	775.81110	-811.04962	652.27991	732.18500	-788.77637	655.71808	742.02411	-850.64722	494.31476	510.99020	-917.95276	621.27710	511.23767	-910.97809	601.01270	281.32654	-1026.54800	614.90247	256.37665	-966.59766	610.47260	232.56137	-1009.77860	596.40356	193.59755	-1046.95320	513.79730	139.00040	-1068.41210	597.27039	109.53544	-1045.82210	529.25946	44.74791	-1006.80110	569.18976	158.38431	-1249.72380	528.94366	118.24308	-1206.75090	633.38025	97.30321	-1172.05550	448.63971	1474.99330	-710.57489	448.92624	1217.83040	-604.05505	277.38898	1439.04140	-771.55469	627.65802	1408.46220	-765.88544	454.31000	1372.52380	-833.14648	568.69952	1353.02480	-630.14337
5343	26.705	328.23318	967.02112	-813.72046	576.17487	978.48755	-813.00653	414.08258	999.04846	-637.36072	505.43289	993.26483	-634.83905	283.39490	772.74823	-765.22382	327.06219	768.85370	-811.59760	307.20578	729.07446	-785.85809	301.03876	682.52100	-759.06940	429.64355	494.73529	-634.34723	311.87939	510.43707	-634.92987	293.93341	394.82056	-548.76111	303.80627	349.16730	-564.19141	320.88745	297.54581	-565.65436	307.87708	378.83612	-607.23218	439.06784	120.82527	-494.98441	352.46130	104.64234	-464.50925	405.60223	70.45118	-388.97275	407.50629	44.57027	-664.77295	437.80768	35.40705	-598.19757	324.79565	38.84527	-572.91010	644.70447	827.56628	-824.64197	658.73907	775.63617	-812.31219	652.97253	731.86072	-790.24457	656.42493	742.15088	-852.16620	494.20346	510.30762	-919.13086	621.23883	510.38242	-911.81152	600.45612	280.48962	-1027.63320	614.28223	255.46780	-967.51550	609.91736	231.75381	-1010.88600	595.29962	192.99294	-1048.15230	513.06671	138.46346	-1069.65420	596.42798	108.81664	-1046.90710	527.90442	43.99881	-1008.23110	568.64001	158.22496	-1250.75820	528.26495	118.09875	-1207.99930	632.49548	96.80454	-1173.23790	449.44714	1473.97240	-710.96771	449.84229	1216.86330	-604.29248	278.13412	1437.85620	-771.73901	628.39941	1407.36830	-766.53638	454.94379	1371.41800	-833.56549	569.58160	1352.03130	-630.64746
5344	26.71	328.81940	966.15009	-813.94745	576.82800	977.61517	-813.40796	414.94601	997.99609	-637.64868	506.18549	992.33075	-635.16736	283.97498	771.90320	-764.83093	327.46109	767.98102	-811.59314	307.61697	728.28552	-785.71912	301.40588	681.72430	-758.89398	429.11151	493.70230	-633.95404	312.28802	509.70120	-634.33160	293.88077	394.83707	-547.20758	303.88831	349.07126	-562.15552	320.93347	297.51566	-563.12939	308.04974	378.16547	-605.39301	438.81000	121.49435	-490.08496	352.12216	105.61276	-459.60529	405.17102	72.08943	-383.77017	407.47327	44.43468	-659.18872	437.73376	35.37963	-592.65405	324.71252	38.79889	-567.45947	646.08368	827.84149	-825.64740	659.58380	775.58282	-813.66473	653.58539	731.60632	-791.89038	656.91644	742.39233	-853.81293	493.91895	509.73367	-920.53864	621.13727	509.70404	-912.82849	600.00702	279.55991	-1028.42660	613.54211	254.57442	-968.11945	609.07056	230.64919	-1011.49850	594.95349	191.91579	-1048.74430	512.10059	137.67421	-1070.21310	595.44672	107.72768	-1047.34590	526.75055	43.07732	-1008.75120	568.20154	157.44435	-1251.11910	527.57080	117.37901	-1208.51610	631.79468	95.80308	-1173.57980	450.27225	1472.95810	-711.40436	450.71039	1215.97450	-604.50903	278.83234	1436.83020	-772.00934	629.12439	1406.24520	-767.17157	455.63715	1370.33940	-833.97009	570.51367	1351.12210	-631.14490
